<?xml version="1.0" encoding="utf-8"?>
<!-- Generator: Adobe Illustrator 22.1.0, SVG Export Plug-In . SVG Version: 6.00 Build 0)  -->
<svg version="1.1" id="Layer_1" xmlns="http://www.w3.org/2000/svg" xmlns:xlink="http://www.w3.org/1999/xlink" x="0px" y="0px"
	 viewBox="0 0 425.2 334.5" style="enable-background:new 0 0 425.2 334.5;" xml:space="preserve">
<style type="text/css">
	.st0{fill:none;}
	.st1{fill:#288CCC;}
	.st2{fill:#ED1C24;}
	.st3{fill:#00A651;}
	.st4{fill:#EC008C;stroke:#EC008C;stroke-width:0.5;stroke-miterlimit:10;}
	.st5{fill:none;stroke:#008547;stroke-width:0.5;stroke-miterlimit:10;}
	.st6{fill:none;stroke:#FFF200;stroke-miterlimit:10;}
</style>
<g>
	<path class="st0" d="M410,303.2c-46.8,0-84.9-38.1-84.9-84.9s38.1-84.9,84.9-84.9c5,0,10,0.4,14.9,1.3V0H-0.3v68.2
		C29.3,56,61.3,49.6,94.3,49.6V58c-33,0-65.1,6.7-94.6,19.3V99c28.7-13.7,60.8-21.3,94.6-21.3c121.7,0,220.7,99,220.7,220.7
		c0,12.3-1,24.3-3,36h112.9V302C420,302.8,415.1,303.2,410,303.2z"/>
	<path class="st0" d="M94.3,91.8c-34.1,0-66.2,8.3-94.6,23v33.4c27.4-17.3,59.8-27.4,94.6-27.4c97.9,0,177.6,79.7,177.6,177.6
		c0,12.2-1.2,24.3-3.7,36h29.6c2.1-11.7,3.2-23.8,3.2-36C300.9,184.5,208.2,91.8,94.3,91.8z"/>
	<path class="st0" d="M94.3,129.3c-34.9,0-67.3,10.6-94.2,28.7l0.5,1.4c-0.3,0.1-0.6,0.2-0.9,0.4v6.4c5.2-2.5,10.9-3.9,17-3.9
		c21.7,0,39.3,17.7,39.3,39.3c0,4.8-0.8,9.4-2.5,13.8l-1-0.4c1.6-4.3,2.4-8.8,2.4-13.4c0-21.1-17.2-38.2-38.2-38.2
		c-6.1,0-11.9,1.5-17,4v58.9c4.8,3.4,10.7,5.3,17,5.3c16.5,0,30-13.5,30-30s-13.5-30-30-30v-2.8c18.1,0,32.8,14.7,32.8,32.8
		s-14.7,32.8-32.8,32.8c-6.2,0-12.1-1.8-17-4.8v6.2c5.1,2.6,10.9,4,17,4c11.1,0,21.6-4.8,28.9-13.2l0.8,0.7
		C39,236,28.2,241,16.7,241c-6.1,0-11.9-1.4-17-3.9v6.4c1.9,0.8,3.8,1.4,5.7,1.9L5,247c-1.8-0.5-3.6-1-5.3-1.7v89.2h36.4
		c0-1,0-2,0-3h3.6c0,1,0,2,0.1,3H45c0-1-0.1-2-0.1-3c0-50.4,41-91.4,91.4-91.4s91.4,41,91.4,91.4c0,1,0,2-0.1,3h32.1
		c2.6-11.8,3.9-23.8,3.9-36C263.5,205.2,187.6,129.3,94.3,129.3z M7.9,157.3l-0.3-1.6c2.6-0.5,5.2-0.8,7.8-0.9v1.7
		C12.9,156.5,10.4,156.8,7.9,157.3z M30.4,158.6c-2.4-0.8-4.9-1.3-7.4-1.7l0.2-1.7c2.6,0.4,5.2,0.9,7.7,1.7L30.4,158.6z M43.9,165.5
		c-2-1.5-4.2-2.9-6.4-4l0.8-1.5c2.3,1.2,4.6,2.6,6.7,4.2L43.9,165.5z M54.3,176.5c-1.4-2.1-3-4.1-4.7-5.9l1.2-1.1
		c1.8,1.9,3.5,4,4.9,6.1L54.3,176.5z M16.7,248.5L16.7,248.5c-1.3,0-2.6-0.1-4-0.2l0.1-1.7c1.3,0.1,2.5,0.2,3.8,0.2v1.7
		C16.7,248.5,16.7,248.5,16.7,248.5L16.7,248.5z M63.6,201.6h-1.7c0-1.3-0.1-2.6-0.2-3.8l1.7-0.1C63.5,199,63.6,200.3,63.6,201.6z
		 M59.5,182.4c1.1,2.4,2,4.9,2.6,7.4l-1.6,0.4c-0.6-2.4-1.5-4.9-2.5-7.2L59.5,182.4z M54.8,279.6l-3.1-2
		c5.4-8.4,11.9-15.9,19.5-22.4l2.4,2.8C66.2,264.3,59.9,271.5,54.8,279.6z M136.2,234.9v-3.6c55.2,0,100.2,44.9,100.2,100.2h-3.6
		C232.8,278.2,189.5,234.9,136.2,234.9z"/>
	<path class="st0" d="M136.2,243.7c-48.4,0-87.7,39.4-87.7,87.7c0,1,0,2,0.1,3h164.1c0-1,0.1-2,0.1-3h3.6c0,1,0,2-0.1,3h7.5
		c0-1,0.1-2,0.1-3C224,283.1,184.6,243.7,136.2,243.7z M136.2,254.9c-42.2,0-76.6,34.4-76.6,76.6H56c0-44.2,36-80.2,80.2-80.2V254.9
		z M192.5,283.4c-4.8-5.6-10.4-10.5-16.6-14.4l2-3.1c6.5,4.1,12.4,9.2,17.4,15.1L192.5,283.4z"/>
	<path class="st0" d="M327.8,218.3c0,45.4,36.9,82.3,82.3,82.3c5,0,10-0.5,14.9-1.3V293c-0.8,0.2-1.5,0.3-2.3,0.4l-2.3-13.9
		c1-0.2,2.1-0.4,3.1-0.6l1.5,7v-13.7c-4.8,1.3-9.8,2-14.9,2c-30.8,0-55.9-25.1-55.9-55.9s25.1-55.9,55.9-55.9c5.1,0,10.1,0.7,14.9,2
		v-10.7l-0.9,4.1c-1-0.2-2-0.4-3.1-0.6l2.4-13.9c0.5,0.1,1,0.2,1.6,0.3v-6.3c-4.9-0.9-9.8-1.4-14.9-1.4
		C364.7,136.1,327.8,173,327.8,218.3z M339.4,189.8l13.1,5.3c-0.4,1-0.8,1.9-1.1,2.9l-13.3-4.6C338.5,192.2,339,191,339.4,189.8z
		 M336.9,197.1l13.5,3.9c-0.3,1-0.6,2-0.8,3l-13.7-3.2C336.2,199.6,336.6,198.3,336.9,197.1z M335.2,204.6l13.9,2.5
		c-0.2,1-0.3,2.1-0.5,3.1l-14-1.8C334.7,207.1,334.9,205.8,335.2,204.6z M334.2,212.2l14,1.1c-0.1,1-0.1,2.1-0.2,3.1l-14.1-0.4
		C334,214.8,334.1,213.5,334.2,212.2z M333.9,219.9l14.1-0.3c0,1,0.1,2.1,0.1,3.1l-14,1C334,222.5,334,221.2,333.9,219.9z
		 M334.5,227.5l14-1.7c0.1,1,0.3,2.1,0.5,3.1l-13.9,2.4C334.8,230.1,334.6,228.8,334.5,227.5z M335.8,235.1l13.7-3.1
		c0.2,1,0.5,2,0.8,3l-13.6,3.8C336.4,237.6,336.1,236.4,335.8,235.1z M337.8,242.5l13.4-4.5c0.3,1,0.7,2,1.1,2.9l-13.1,5.1
		C338.7,244.9,338.3,243.7,337.8,242.5z M417.2,280l1.6,14c-1.3,0.1-2.6,0.3-3.8,0.3l-0.9-14C415.1,280.2,416.2,280.1,417.2,280z
		 M407.8,280.3c1,0,2.1,0,3.1,0l0.2,14.1c-0.4,0-0.7,0-1.1,0c-0.9,0-1.8,0-2.7,0L407.8,280.3z M401.6,279.8c1,0.1,2.1,0.3,3.1,0.3
		l-1.2,14c-1.3-0.1-2.6-0.3-3.8-0.4L401.6,279.8z M398.5,279.3l-2.6,13.8c-1.3-0.2-2.5-0.5-3.8-0.8l3.3-13.7
		C396.4,278.9,397.4,279.1,398.5,279.3z M392.4,277.8l-4,13.5c-1.2-0.4-2.5-0.8-3.7-1.2l4.7-13.3
		C390.4,277.2,391.4,277.5,392.4,277.8z M386.5,275.7l-5.4,13c-1.2-0.5-2.4-1-3.5-1.6l6-12.7C384.6,274.9,385.5,275.3,386.5,275.7z
		 M380.8,273.1l-6.6,12.4c-1.1-0.6-2.3-1.2-3.3-1.9l7.3-12.1C379,272.1,379.9,272.6,380.8,273.1z M372.9,268
		c0.8,0.6,1.7,1.2,2.6,1.8l-7.9,11.7c-1.1-0.7-2.1-1.5-3.1-2.2L372.9,268z M370.4,266.1l-9,10.8c-1-0.8-1.9-1.7-2.9-2.5L368,264
		C368.8,264.7,369.6,265.4,370.4,266.1z M365.8,261.8l-10,9.9c-0.9-0.9-1.8-1.9-2.6-2.8l10.5-9.4
		C364.4,260.3,365.1,261.1,365.8,261.8z M361.6,257.2l-11,8.8c-0.8-1-1.6-2-2.3-3.1l11.4-8.3C360.4,255.5,361,256.3,361.6,257.2z
		 M358,252.1l-11.8,7.7c-0.7-1.1-1.4-2.2-2-3.3l12.2-7.1C356.9,250.3,357.4,251.2,358,252.1z M354.8,246.7l-12.5,6.4
		c-0.6-1.1-1.1-2.3-1.7-3.5l12.8-5.8C353.9,244.8,354.4,245.8,354.8,246.7z M353.7,192.2l-12.8-5.9c0.5-1.2,1.1-2.3,1.7-3.4
		l12.5,6.6C354.6,190.4,354.2,191.3,353.7,192.2z M356.7,186.7l-12.1-7.2c0.7-1.1,1.3-2.2,2-3.3l11.7,7.8
		C357.8,184.9,357.2,185.8,356.7,186.7z M360.1,181.5l-11.3-8.4c0.8-1,1.6-2,2.4-3l10.9,8.9C361.4,179.8,360.8,180.6,360.1,181.5z
		 M364.1,176.6l-10.4-9.5c0.9-0.9,1.7-1.9,2.7-2.8l9.9,10C365.5,175.1,364.8,175.9,364.1,176.6z M368.5,172.2l-9.4-10.5
		c1-0.9,1.9-1.7,2.9-2.5l8.9,10.9C370.1,170.8,369.3,171.5,368.5,172.2z M373.4,168.3l-8.3-11.4c1-0.8,2.1-1.5,3.2-2.2l7.7,11.8
		C375.1,167,374.2,167.6,373.4,168.3z M378.6,164.8l-7.1-12.1c1.1-0.6,2.2-1.3,3.4-1.9l6.5,12.5
		C380.4,163.8,379.5,164.3,378.6,164.8z M384.2,161.9l-5.9-12.8c1.2-0.5,2.3-1,3.5-1.5l5.2,13.1
		C386.1,161.1,385.1,161.5,384.2,161.9z M390,159.6l-4.6-13.3c1.2-0.4,2.5-0.8,3.7-1.2l3.9,13.5C392,159,391,159.3,390,159.6z
		 M396,157.9l-3.2-13.7c1.2-0.3,2.5-0.5,3.8-0.8l2.5,13.9C398,157.4,397,157.7,396,157.9z M402.1,156.8l-1.8-14
		c1.3-0.2,2.6-0.3,3.8-0.4l1.1,14C404.2,156.6,403.2,156.7,402.1,156.8z M415.7,142.4c1.3,0.1,2.6,0.2,3.8,0.4l-1.7,14
		c-1-0.1-2.1-0.2-3.1-0.3L415.7,142.4z M411.5,156.3c-1,0-2.1,0-3.1,0l-0.4-14.1c1.3,0,2.6,0,3.8,0L411.5,156.3z"/>
	<path class="st0" d="M356.8,218.3c0,29.4,23.9,53.2,53.2,53.2c5.1,0,10.1-0.7,14.9-2.1v-90.9c-4.1-1.5-8.5-2.3-13-2.5l0.1-4.4
		c4.4,0.1,8.7,0.9,12.8,2.2v-6.7c-4.8-1.4-9.8-2.1-14.9-2.1C380.7,165.1,356.8,189,356.8,218.3z M368.2,217.4l-4.4-0.1
		c0.3-12.6,5.5-24.2,14.6-32.9l3,3.2C373.2,195.4,368.5,206,368.2,217.4z M409.9,265c-12.6-0.1-24.3-5.2-33-14.2l3.2-3.1
		c7.9,8.2,18.5,12.8,29.9,12.9L409.9,265z"/>
	<path class="st1" d="M55,201.6c0,4.6-0.8,9.1-2.4,13.4l1,0.4c1.7-4.4,2.5-9.1,2.5-13.8c0-21.7-17.7-39.3-39.3-39.3
		c-6.1,0-11.9,1.4-17,3.9v1.2c5.1-2.6,10.9-4,17-4C37.8,163.4,55,180.6,55,201.6z"/>
	<path class="st1" d="M46.5,227.4l-0.8-0.7c-7.3,8.4-17.8,13.2-28.9,13.2c-6.1,0-11.9-1.5-17-4v1.2c5.2,2.5,10.9,3.9,17,3.9
		C28.2,241,39,236,46.5,227.4z"/>
	<path class="st1" d="M49.5,201.6c0-18.1-14.7-32.8-32.8-32.8v2.8c16.5,0,30,13.5,30,30s-13.5,30-30,30c-6.3,0-12.2-2-17-5.3v3.3
		c5,3,10.8,4.8,17,4.8C34.8,234.4,49.5,219.7,49.5,201.6z"/>
	<path class="st1" d="M12.9,246.7l-0.1,1.7c1.3,0.1,2.6,0.2,4,0.2v-1.7C15.5,246.8,14.2,246.8,12.9,246.7z"/>
	<path class="st1" d="M16.7,248.5L16.7,248.5L16.7,248.5z"/>
	<path class="st1" d="M0.1,158c-0.1,0.1-0.2,0.2-0.4,0.2v1.6c0.3-0.1,0.6-0.3,0.9-0.4L0.1,158z"/>
	<path class="st1" d="M5.4,245.4c-1.9-0.5-3.9-1.1-5.7-1.9v1.8c1.7,0.7,3.5,1.3,5.3,1.7L5.4,245.4z"/>
	<path class="st1" d="M37.4,161.5c2.2,1.2,4.4,2.5,6.4,4l1-1.3c-2.1-1.6-4.3-3-6.7-4.2L37.4,161.5z"/>
	<path class="st1" d="M62.1,189.9c-0.7-2.5-1.5-5-2.6-7.4l-1.5,0.7c1,2.3,1.9,4.7,2.5,7.2L62.1,189.9z"/>
	<path class="st1" d="M49.5,170.6c1.7,1.8,3.3,3.8,4.7,5.9l1.4-0.9c-1.5-2.2-3.1-4.2-4.9-6.1L49.5,170.6z"/>
	<path class="st1" d="M7.6,155.7l0.3,1.6c2.5-0.5,5-0.8,7.5-0.8v-1.7C12.8,154.9,10.1,155.2,7.6,155.7z"/>
	<path class="st1" d="M23,156.9c2.5,0.3,5,0.9,7.4,1.7l0.5-1.6c-2.5-0.8-5.1-1.4-7.7-1.7L23,156.9z"/>
	<path class="st1" d="M61.9,201.6h1.7c0-1.3-0.1-2.6-0.2-4l-1.7,0.1C61.9,199.1,61.9,200.4,61.9,201.6z"/>
	<path class="st1" d="M420.9,157.2c1,0.2,2.1,0.4,3.1,0.6l0.9-4.1v-10.1c-0.5-0.1-1-0.2-1.6-0.3L420.9,157.2z"/>
	<path class="st1" d="M348,219.6l-14.1,0.3c0,1.3,0.1,2.6,0.2,3.8l14-1C348.1,221.7,348,220.6,348,219.6z"/>
	<path class="st1" d="M349,207.1l-13.9-2.5c-0.2,1.3-0.4,2.5-0.6,3.8l14,1.8C348.7,209.2,348.8,208.1,349,207.1z"/>
	<path class="st1" d="M348.2,213.3l-14-1.1c-0.1,1.3-0.2,2.6-0.2,3.8l14.1,0.4C348.1,215.4,348.1,214.4,348.2,213.3z"/>
	<path class="st1" d="M348.5,225.9l-14,1.7c0.2,1.3,0.3,2.6,0.6,3.8L349,229C348.7,227.9,348.6,226.9,348.5,225.9z"/>
	<path class="st1" d="M349.5,232l-13.7,3.1c0.3,1.2,0.6,2.5,0.9,3.7l13.6-3.8C350,234.1,349.7,233,349.5,232z"/>
	<path class="st1" d="M340.7,249.7c0.5,1.2,1.1,2.3,1.7,3.5l12.5-6.4c-0.5-0.9-0.9-1.9-1.4-2.8L340.7,249.7z"/>
	<path class="st1" d="M420.3,279.5l2.3,13.9c0.8-0.1,1.5-0.3,2.3-0.4v-7.1l-1.5-7C422.4,279.2,421.3,279.4,420.3,279.5z"/>
	<path class="st1" d="M341,186.3l12.8,5.9c0.4-0.9,0.9-1.9,1.4-2.8l-12.5-6.6C342.1,184,341.5,185.2,341,186.3z"/>
	<path class="st1" d="M352.5,195.1l-13.1-5.3c-0.5,1.2-0.9,2.4-1.4,3.6l13.3,4.6C351.7,197.1,352.1,196.1,352.5,195.1z"/>
	<path class="st1" d="M351.2,238l-13.4,4.5c0.4,1.2,0.8,2.4,1.3,3.6l13.1-5.1C351.9,240,351.5,239,351.2,238z"/>
	<path class="st1" d="M350.4,201l-13.5-3.9c-0.4,1.2-0.7,2.5-1,3.7l13.7,3.2C349.9,203,350.2,202,350.4,201z"/>
	<path class="st1" d="M381.1,288.8l5.4-13c-1-0.4-1.9-0.8-2.9-1.3l-6,12.7C378.8,287.8,380,288.3,381.1,288.8z"/>
	<path class="st1" d="M367.6,281.5l7.9-11.7c-0.9-0.6-1.7-1.2-2.6-1.8l-8.4,11.3C365.5,280,366.5,280.8,367.6,281.5z"/>
	<path class="st1" d="M361.4,276.9l9-10.8c-0.8-0.7-1.6-1.4-2.4-2.1l-9.5,10.4C359.5,275.2,360.5,276.1,361.4,276.9z"/>
	<path class="st1" d="M355.8,271.7l10-9.9c-0.7-0.7-1.4-1.5-2.1-2.3l-10.5,9.4C354,269.9,354.9,270.8,355.8,271.7z"/>
	<path class="st1" d="M346.2,259.8l11.8-7.7c-0.6-0.9-1.1-1.8-1.6-2.7l-12.2,7.1C344.8,257.6,345.5,258.7,346.2,259.8z"/>
	<path class="st1" d="M350.7,266l11-8.8c-0.7-0.8-1.3-1.6-1.9-2.5l-11.4,8.3C349.1,264,349.9,265,350.7,266z"/>
	<path class="st1" d="M395.9,293.1l2.6-13.8c-1-0.2-2.1-0.4-3.1-0.7l-3.3,13.7C393.3,292.6,394.6,292.9,395.9,293.1z"/>
	<path class="st1" d="M411.1,294.4l-0.2-14.1c-1,0-2.1,0-3.1,0l-0.5,14.1c0.9,0,1.8,0,2.7,0C410.4,294.4,410.8,294.4,411.1,294.4z"
		/>
	<path class="st1" d="M418.8,293.9l-1.6-14c-1,0.1-2.1,0.2-3.1,0.3l0.9,14C416.2,294.2,417.5,294.1,418.8,293.9z"/>
	<path class="st1" d="M374.2,285.5l6.6-12.4c-0.9-0.5-1.8-1-2.7-1.5l-7.3,12.1C371.9,284.2,373,284.9,374.2,285.5z"/>
	<path class="st1" d="M344.6,179.5l12.1,7.2c0.5-0.9,1.1-1.8,1.7-2.7l-11.7-7.8C345.9,177.3,345.2,178.4,344.6,179.5z"/>
	<path class="st1" d="M388.4,291.3l4-13.5c-1-0.3-2-0.6-3-1l-4.7,13.3C385.9,290.6,387.2,291,388.4,291.3z"/>
	<path class="st1" d="M404.7,280.1c-1-0.1-2.1-0.2-3.1-0.3l-1.9,14c1.3,0.2,2.5,0.3,3.8,0.4L404.7,280.1z"/>
	<path class="st1" d="M365.1,156.9l8.3,11.4c0.8-0.6,1.7-1.2,2.6-1.8l-7.7-11.8C367.2,155.4,366.1,156.1,365.1,156.9z"/>
	<path class="st1" d="M371.5,152.7l7.1,12.1c0.9-0.5,1.8-1,2.7-1.5l-6.5-12.5C373.7,151.4,372.6,152,371.5,152.7z"/>
	<path class="st1" d="M385.4,146.3l4.6,13.3c1-0.3,2-0.7,3-0.9l-3.9-13.5C387.9,145.5,386.6,145.9,385.4,146.3z"/>
	<path class="st1" d="M359.1,161.7l9.4,10.5c0.8-0.7,1.6-1.4,2.4-2l-8.9-10.9C361.1,160,360.1,160.9,359.1,161.7z"/>
	<path class="st1" d="M392.8,144.2l3.2,13.7c1-0.2,2-0.4,3.1-0.6l-2.5-13.9C395.3,143.6,394.1,143.9,392.8,144.2z"/>
	<path class="st1" d="M353.7,167.2l10.4,9.5c0.7-0.8,1.4-1.5,2.2-2.3l-9.9-10C355.4,165.3,354.5,166.2,353.7,167.2z"/>
	<path class="st1" d="M378.3,149.1l5.9,12.8c0.9-0.4,1.9-0.9,2.9-1.2l-5.2-13.1C380.6,148.1,379.5,148.6,378.3,149.1z"/>
	<path class="st1" d="M400.4,142.8l1.8,14c1-0.1,2.1-0.2,3.1-0.3l-1.1-14C402.9,142.5,401.7,142.7,400.4,142.8z"/>
	<path class="st1" d="M348.8,173.1l11.3,8.4c0.6-0.8,1.3-1.7,1.9-2.5l-10.9-8.9C350.4,171.1,349.6,172.1,348.8,173.1z"/>
	<path class="st1" d="M419.5,142.8c-1.3-0.2-2.6-0.3-3.8-0.4l-1,14c1,0.1,2.1,0.2,3.1,0.3L419.5,142.8z"/>
	<path class="st1" d="M408.4,156.3c1,0,2.1,0,3.1,0l0.3-14.1c-1.3,0-2.6,0-3.8,0L408.4,156.3z"/>
	<path class="st1" d="M354.2,218.3c0,30.8,25.1,55.9,55.9,55.9c5.1,0,10.1-0.7,14.9-2v-2.7c-4.8,1.4-9.7,2.1-14.9,2.1
		c-29.4,0-53.2-23.9-53.2-53.2c0-29.4,23.9-53.2,53.2-53.2c5.1,0,10.1,0.7,14.9,2.1v-2.7c-4.8-1.3-9.8-2-14.9-2
		C379.2,162.5,354.2,187.5,354.2,218.3z"/>
	<path class="st1" d="M325.1,218.3c0,46.8,38.1,84.9,84.9,84.9c5,0,10-0.4,14.9-1.3v-2.7c-4.8,0.9-9.8,1.3-14.9,1.3
		c-45.4,0-82.3-36.9-82.3-82.3s36.9-82.3,82.3-82.3c5,0,10,0.5,14.9,1.4v-2.7c-4.9-0.9-9.8-1.3-14.9-1.3
		C363.2,133.4,325.1,171.5,325.1,218.3z"/>
	<path class="st1" d="M376.9,250.8c8.7,9,20.5,14.1,33,14.2v-4.4c-11.4-0.1-22-4.7-29.9-12.9L376.9,250.8z"/>
	<path class="st1" d="M411.9,176.1c4.5,0.2,8.9,1,13,2.5v-4.7c-4.1-1.3-8.4-2.1-12.8-2.2L411.9,176.1z"/>
	<path class="st1" d="M381.4,187.6l-3-3.2c-9.1,8.6-14.3,20.3-14.6,32.9l4.4,0.1C368.5,206,373.2,195.4,381.4,187.6z"/>
	<path class="st1" d="M136.2,240.1c-50.4,0-91.4,41-91.4,91.4c0,1,0,2,0.1,3h3.7c0-1-0.1-2-0.1-3c0-48.4,39.4-87.7,87.7-87.7
		c48.4,0,87.7,39.4,87.7,87.7c0,1,0,2-0.1,3h3.6c0-1,0.1-2,0.1-3C227.6,281.1,186.6,240.1,136.2,240.1z"/>
	<path class="st1" d="M36,331.5c0,1,0,2,0,3h3.7c0-1-0.1-2-0.1-3H36z"/>
	<path class="st1" d="M136.2,231.3v3.6c53.2,0,96.5,43.3,96.5,96.6h3.6C236.4,276.2,191.5,231.3,136.2,231.3z"/>
	<path class="st1" d="M51.7,277.7l3.1,2c5.2-8.1,11.5-15.4,18.8-21.6l-2.4-2.8C63.6,261.7,57,269.3,51.7,277.7z"/>
	<path class="st1" d="M177.9,265.9l-2,3.1c6.2,4,11.8,8.8,16.6,14.4l2.8-2.4C190.3,275.2,184.4,270.1,177.9,265.9z"/>
	<path class="st1" d="M56,331.5h3.7c0-42.2,34.4-76.6,76.6-76.6v-3.6C92,251.2,56,287.2,56,331.5z"/>
	<path class="st1" d="M212.8,331.5c0,1,0,2-0.1,3h3.6c0-1,0.1-2,0.1-3H212.8z"/>
	<path class="st1" d="M94.3,77.7c-33.8,0-65.9,7.7-94.6,21.3v15.7c28.4-14.7,60.5-23,94.6-23c113.9,0,206.7,92.7,206.7,206.7
		c0,12.3-1.1,24.3-3.2,36H312c1.9-11.7,3-23.8,3-36C315,176.7,216,77.7,94.3,77.7z"/>
	<path class="st1" d="M94.3,120.8c-34.7,0-67.2,10-94.6,27.4v10.1c0.1-0.1,0.2-0.2,0.4-0.2c27-18.1,59.4-28.7,94.2-28.7
		c93.3,0,169.2,75.9,169.2,169.2c0,12.2-1.3,24.3-3.9,36h8.6c2.4-11.8,3.7-23.9,3.7-36C271.9,200.5,192.2,120.8,94.3,120.8z"/>
	<path class="st1" d="M94.3,49.6c-33,0-65,6.4-94.6,18.6v9.2c29.5-12.6,61.6-19.3,94.6-19.3V49.6z"/>
</g>
<g>
	<polygon class="st2" points="256,62.5 240.7,62.5 240.7,54.5 235.9,54.5 235.9,75.6 240.7,75.6 240.7,66.5 256,66.5 256,75.6 
		260.8,75.6 260.8,54.5 256,54.5 	"/>
	<polygon class="st2" points="275.1,54.5 261.1,75.6 266.6,75.6 276.8,59.9 286.8,75.6 292.4,75.6 278.5,54.5 	"/>
	<path class="st2" d="M317.7,56.1L317.7,56.1c-0.6-0.5-1.5-1-2.5-1.2c-1-0.3-2.2-0.4-3.7-0.4h-18.8v21h18.8c1.5,0,2.7-0.1,3.7-0.4
		s1.8-0.7,2.5-1.2c0.6-0.5,1.1-1.2,1.4-2s0.4-1.7,0.4-2.6V61c0-1-0.1-1.9-0.4-2.7C318.8,57.4,318.3,56.7,317.7,56.1z M314.1,71.1
		c-0.2,0.2-0.5,0.3-0.9,0.4s-1,0.1-1.6,0.1h-14v-13h14c0.7,0,1.2,0,1.6,0.1s0.7,0.2,0.9,0.4c0.2,0.2,0.3,0.4,0.4,0.6
		c0.1,0.3,0.2,0.8,0.2,1.3v8.4c0,0.5-0.1,0.9-0.2,1.2C314.4,70.7,314.2,70.9,314.1,71.1z"/>
	<polygon class="st2" points="319.9,58.5 330.4,58.5 330.4,75.6 335.2,75.6 335.2,58.5 345.4,58.5 345.4,54.5 319.9,54.5 	"/>
	<path class="st2" d="M368,54.5v15.7c0,0.4,0,1.3-1.9,1.3h-12.4c-1.9,0-1.9-0.9-1.9-1.3V54.5H347v15.7c0,0.8,0.1,1.5,0.4,2.1
		c0.3,0.7,0.7,1.2,1.2,1.7s1.3,0.8,2.1,1.1c0.8,0.3,1.8,0.4,3.1,0.4H367c1.2,0,2.2-0.1,2.9-0.4c0.8-0.3,1.4-0.6,1.9-1.1
		s0.8-1.1,1-1.8c0.2-0.6,0.2-1.3,0.2-2.1V54.5H368z"/>
</g>
<g>
	<path class="st2" d="M245.5,84.4c0.2-0.5,0.5-1,1-1.3c0.4-0.3,1-0.5,1.5-0.5c0.4,0,0.8,0.1,1.1,0.2s0.7,0.3,0.9,0.5
		c0.3,0.2,0.5,0.5,0.6,0.9c0.2,0.3,0.2,0.7,0.2,1.1V91c0,0.6,0.3,1,0.8,1c0.2,0,0.3-0.1,0.4-0.2c0.1-0.1,0.2-0.3,0.3-0.5l2.2-6.9
		c0.2-0.5,0.5-1,1-1.3c0.5-0.3,1-0.5,1.5-0.5c0.4,0,0.8,0.1,1.1,0.2c0.3,0.1,0.7,0.3,0.9,0.5c0.3,0.2,0.5,0.5,0.6,0.9
		c0.2,0.3,0.2,0.7,0.2,1.1v8.4h-2.1v-8.2c0-0.6-0.3-1-0.8-1c-0.2,0-0.3,0.1-0.4,0.2s-0.2,0.3-0.2,0.5l-2.2,6.8
		c-0.2,0.5-0.5,1-0.9,1.3s-1,0.5-1.6,0.5c-0.4,0-0.8-0.1-1.1-0.2s-0.6-0.3-0.9-0.5c-0.3-0.2-0.5-0.5-0.6-0.9
		c-0.1-0.3-0.2-0.7-0.2-1.1v-5.6c0-0.6-0.3-1-0.8-1c-0.2,0-0.3,0.1-0.4,0.2s-0.2,0.3-0.3,0.5l-3,8.5h-2.2L245.5,84.4z"/>
	<path class="st2" d="M267.2,82.7c3.3,0,5,1.8,5,5.5l0,0c0,3.7-1.7,5.5-5,5.5h-0.9c-3.4,0-5-1.8-5-5.5l0,0c0-3.7,1.7-5.5,5-5.5
		H267.2z M265.9,84.7c-0.9,0-1.5,0.3-2,0.9c-0.4,0.6-0.7,1.5-0.7,2.7c0,2.4,0.9,3.6,2.6,3.6h1.9c1.7,0,2.6-1.2,2.6-3.6
		c0-1.3-0.2-2.2-0.7-2.7s-1.1-0.9-2-0.9H265.9z"/>
	<path class="st2" d="M278.3,82.7c3.3,0,5,1.8,5,5.5l0,0c0,3.7-1.7,5.5-5,5.5h-4.6v-11H278.3z M275.7,91.9h3.1c0.9,0,1.5-0.3,2-0.9
		s0.6-1.5,0.6-2.8c0-2.4-0.9-3.6-2.6-3.6h-3.1V91.9z"/>
	<path class="st2" d="M293.6,84.7h-5.8c-0.2,0-0.3,0-0.5,0.1s-0.3,0.2-0.4,0.3c-0.1,0.1-0.2,0.3-0.3,0.4c-0.1,0.2-0.1,0.3-0.1,0.5
		c0,0.4,0.1,0.7,0.4,0.9c0.2,0.3,0.5,0.4,0.9,0.4h5.8v1.9h-5.8c-0.2,0-0.3,0-0.5,0.1s-0.3,0.2-0.4,0.3c-0.1,0.1-0.2,0.3-0.3,0.4
		c-0.1,0.2-0.1,0.3-0.1,0.5c0,0.4,0.1,0.7,0.4,1c0.2,0.3,0.5,0.4,0.9,0.4h5.8v1.9h-5.5c-0.6,0-1.2-0.1-1.6-0.3
		c-0.4-0.2-0.8-0.4-1.1-0.7c-0.3-0.3-0.5-0.7-0.6-1.1s-0.2-0.8-0.2-1.2c0-0.4,0.1-0.9,0.3-1.3c0.2-0.4,0.5-0.7,0.9-1
		c-0.4-0.3-0.7-0.6-0.9-1c-0.2-0.4-0.3-0.8-0.3-1.2c0-0.5,0.1-0.9,0.2-1.3s0.4-0.7,0.6-1s0.6-0.5,1.1-0.7s1-0.2,1.6-0.2h5.5V84.7z"
		/>
	<path class="st2" d="M300.1,93.8c-0.8,0-1.5-0.1-2.1-0.3c-0.6-0.2-1.1-0.5-1.5-1c-0.4-0.4-0.7-0.9-0.9-1.5c-0.2-0.6-0.3-1.2-0.3-2
		v-6.3h1.9V89c0,0.9,0.3,1.6,0.8,2.1s1.2,0.7,2.1,0.7h3.4v1.9h-3.4V93.8z"/>
	<path class="st2" d="M309.3,82.7c0.5,0,1,0.1,1.4,0.2s0.9,0.4,1.3,0.7c0.4,0.3,0.7,0.7,0.9,1.2c0.2,0.5,0.3,1,0.3,1.6v7.3h-2v-7.3
		c0-0.3-0.1-0.6-0.2-0.8c-0.1-0.2-0.2-0.4-0.4-0.6c-0.2-0.1-0.4-0.3-0.6-0.3c-0.2-0.1-0.5-0.1-0.8-0.1v-1.9H309.3z"/>
	<path class="st2" d="M322.7,82.7c0.9,0,1.6,0.2,2,0.7s0.7,1.1,0.7,1.8c0,0.5-0.1,1-0.4,1.5c-0.3,0.4-0.7,0.8-1.4,1.1l-6.1,2.7
		c-0.2,0.1-0.3,0.2-0.5,0.3c-0.1,0.1-0.2,0.3-0.2,0.5v0.6h8.2v1.9h-10.2v-2.5c0-0.2,0-0.4,0.1-0.6s0.1-0.5,0.3-0.7
		c0.1-0.2,0.3-0.5,0.5-0.7s0.5-0.4,0.9-0.6l6.1-2.7c0.2-0.1,0.4-0.2,0.5-0.4s0.2-0.3,0.2-0.5s0-0.3-0.1-0.4s-0.3-0.2-0.6-0.2h-7.4
		v-1.9L322.7,82.7L322.7,82.7z"/>
	<path class="st2" d="M326.8,82.7c0.5,0,1,0.1,1.4,0.2s0.9,0.4,1.3,0.7c0.4,0.3,0.7,0.7,0.9,1.2c0.2,0.5,0.3,1,0.3,1.6v7.3h-2v-7.3
		c0-0.3-0.1-0.6-0.2-0.8c-0.1-0.2-0.2-0.4-0.4-0.6c-0.2-0.1-0.4-0.3-0.6-0.3c-0.2-0.1-0.5-0.1-0.8-0.1v-1.9H326.8z"/>
	<path class="st2" d="M340.9,84.7h-6.7v2.6h3.9c1,0,1.8,0.3,2.3,0.9s0.8,1.4,0.8,2.4c0,0.5-0.1,0.9-0.2,1.3c-0.2,0.4-0.4,0.7-0.7,1
		c-0.3,0.3-0.6,0.5-1,0.7s-0.8,0.3-1.3,0.3h-5.9V92h5.9c0.2,0,0.3,0,0.5-0.1c0.1-0.1,0.3-0.2,0.4-0.3c0.1-0.1,0.2-0.3,0.3-0.4
		c0.1-0.2,0.1-0.3,0.1-0.5c0-0.3-0.1-0.6-0.4-0.9c-0.2-0.3-0.5-0.4-0.9-0.4h-5.9v-6.5h8.6v1.8H340.9z"/>
	<path class="st2" d="M347.9,82.7c3.3,0,5,1.8,5,5.5l0,0c0,3.7-1.7,5.5-5,5.5h-0.1c-3.4,0-5-1.8-5-5.5l0,0
		C342.8,84.5,344.5,82.7,347.9,82.7L347.9,82.7z M348.4,91.9c1.7,0,2.6-1.1,2.6-3.4v-0.1c0-1.3-0.2-2.2-0.7-2.7
		c-0.4-0.6-1.1-0.9-2-0.9h-1.1c-0.9,0-1.5,0.3-2,0.9c-0.4,0.6-0.7,1.5-0.7,2.7v0.1c0,2.3,0.9,3.4,2.6,3.4H348.4z"/>
	<path class="st2" d="M362.3,82.7c0.4,0,0.7,0.1,1,0.2s0.5,0.3,0.7,0.5s0.4,0.5,0.5,0.7c0.1,0.3,0.2,0.6,0.2,0.9s-0.1,0.7-0.2,1
		s-0.3,0.6-0.6,0.9l-6.4,6.9h-2.6l7.7-8.3c0.1-0.1,0.2-0.3,0.2-0.4s0-0.2-0.1-0.3s-0.2-0.1-0.3-0.1h-8.1v-1.9L362.3,82.7L362.3,82.7
		z"/>
</g>
<path class="st3" d="M333.8,310c0.1-0.1,0.2-0.2,0.1-0.3c-0.3,0-0.6,0.3-0.9,0.2c-0.2-0.1-0.3-0.2-0.3-0.4c-0.2-0.4-0.2-0.8,0-1.1
	c0.2-0.3,0.7-0.5,1-0.4s0.5,0.4,0.8,0.4s0.5-0.3,0.6-0.6l0.2-0.4c0.3,0.3,0.5,0.7,0.5,1.1s-0.1,0.8-0.1,1.2
	c-0.2,0.9-0.2,1.9,0.1,2.8s0.8,1.8,1.7,2.2c1,0.5,2.2,0.5,3.1-0.1s1.7-1.4,2-2.5c-0.5,1.7,0.1,3.5,0.7,5.1c-0.7,0.2-1.3,0.9-1.5,1.6
	c0,0.1-0.1,0.2-0.1,0.3c0,0.2,0.1,0.3,0.2,0.4c0.3,0.8-0.4,1.5-0.5,2.4c-0.1,0.8,0.4,1.5,0.9,2.2c0.5,0.6,1.1,1.2,1.3,2
	c0.1-0.2,0.3-0.4,0.4-0.7l0.5,0.4h0.1l0.1-0.1l0.4-1c0.3,0.1,0.5,0.3,0.7,0.4c0-0.3,0.1-0.5,0.2-0.7l0.1-0.1h0.1l0.5,0.4
	c0-0.4-0.1-0.7-0.3-1c-0.3-0.4-0.8-0.6-1.2-0.8l-1.7-0.6c-0.1-0.8-0.1-1.6,0.1-2.3c1-0.7,1.9-1.7,2.7-2.7c0.7-0.8,1.3-1.7,1.3-2.7
	c0-0.6-0.2-1.2-0.4-1.8c0.5-0.2,1.1-0.2,1.6-0.2c0.3,0,0.6,0.1,0.8,0.4c0.1,0.1,0.1,0.3,0.1,0.4c-0.1,1-0.6,2-0.2,2.8
	c0.9-1,2.2-1.5,3.5-1.4c0.1,0,0.2,0,0.2,0.1c0.1,0.1,0.1,0.2,0.1,0.3c0.1,0.5,0.9,0.5,1.3,0.2c0.3-0.3,0.6-0.5,0.9-0.9
	s0.4-0.8,0.3-1.2l0.6,0.2c-0.1-0.4-0.2-0.7-0.4-1c0.2,0,0.5,0,0.7,0.1c0-0.4-0.2-0.7-0.5-0.8c0.2-0.2,0.6-0.2,0.9-0.1
	c-0.2-0.3-0.4-0.6-0.7-0.8c-0.2,0-0.4,0.1-0.6,0.2c-0.8,0.4-1.1,1.3-1.4,2.2c-0.8-0.1-1.7-0.2-2.5-0.1l0,0c0,0-0.1,0.1-0.1,0
	c0.3-0.3,0.4-0.8,0.5-1.2c0.1-1,0-2-0.2-3c0.2,0,0.5,0,0.7,0.1c-0.5-0.9-1.5-1.5-2.6-1.8c0.7-0.3,1.2-0.8,1.7-1.3
	c0.2-0.2,0.3-0.3,0.5-0.4c0.2,0.1,0.4,0.1,0.6,0.3c0.1,0.2,0.3,0.4,0.4,0.5c0.1,0,0.3,0.1,0.4,0l2.2-0.1c-0.1,0.4-0.2,0.8-0.1,1.2
	c0,0.3,0.1,0.6,0.3,0.8c0.4,0.3,0.9,0.3,1.4,0.2c-0.3,0-0.5-0.2-0.7-0.5c-0.1-0.2-0.2-0.5-0.2-0.8c0-0.9,0.5-1.7,1.3-2
	s1.8,0,2.2,0.8c0.2-0.4,0.1-0.9-0.1-1.3c-0.3-0.4-0.7-0.6-1.2-0.6c0.4-0.2,0.9-0.4,1.3-0.6c-0.1-0.2-0.3-0.3-0.4-0.4
	c-0.6-0.3-1.3,0-1.9,0.3c0.4-0.2,0.7-0.4,0.9-0.7c-0.7,0-1.4,0-1.9,0.5c-0.3,0.3-0.4,0.9-0.5,1.3l-0.1,1c-0.8-0.1-1.6-0.3-2.3-0.2
	c-0.2,0,0.1-0.4-0.1-0.3c0.1-0.6-0.4-0.9-0.5-1.5c0.5-0.7,0.9-1.4,1.1-2.2c0-0.2,0.1-0.4,0.1-0.6c0.1,0,0.1,0,0.2,0
	c0.2,0,0.4,0.1,0.6,0c0.1-0.1,0.2-0.1,0.3-0.2l1.5-1.5c0.2,0.4,0.4,0.7,0.7,1c0.2,0.2,0.5,0.3,0.8,0.3c0.5,0,0.9-0.5,1.1-0.9
	c-0.2,0.2-0.5,0.2-0.8,0.1s-0.5-0.2-0.7-0.5c-0.6-0.6-0.8-1.6-0.4-2.4s1.3-1.2,2.1-0.9c-0.1-0.5-0.6-0.7-1-0.9c-0.5-0.1-1,0-1.3,0.4
	c0.1-0.5,0.3-0.9,0.5-1.4c-0.2-0.1-0.4-0.1-0.6,0c-0.6,0.2-1,0.9-1.2,1.5c0.2-0.4,0.2-0.8,0.2-1.2c-0.5,0.5-1,1-1,1.6
	c0,0.5,0.3,0.9,0.6,1.3l0.6,0.8c-0.6,0.5-1.3,0.9-1.8,1.5c-0.1,0.2-0.2-0.3-0.3-0.1c-0.2-0.2-0.4-0.3-0.6-0.4
	c-0.6-0.8-1.8-1.1-2.5-1.8c-0.4-0.4-0.7-0.9-1.1-1.3c-0.7-0.7-1.4-1-2.2-1.4c0.4,0.1,0.9,0.1,1.3,0.1c0.5,0,1-0.1,1.3-0.5
	c-0.4,0-0.7-0.1-1.1-0.2l-0.2-0.1c0.2,0,0.4-0.1,0.5-0.1c1-0.3,1.8-1.1,2.7-0.1c0,0.1,0.1,0,0.1-0.1c-0.2-0.7-0.9-1.2-1.7-1.1
	c-0.5,0.1-1,0.4-1.5,0.5c-0.2,0-0.4,0.1-0.6,0.1c0.2-0.3,0.4-0.5,0.6-0.7c0.3-0.3,0.7-0.5,1.2-0.6c0.4,0,0.9,0.2,1.1,0.5
	c0.1-0.3,0.1-0.6,0.1-0.9c0-0.2-0.1-0.5-0.2-0.7c-0.1-0.1-0.2-0.1-0.3-0.2c-0.7-0.2-1.3,0.1-2,0.3c0-0.2-0.2-0.6-0.3-0.7
	c-0.2-0.2-0.4-0.3-0.7-0.3c-0.3-0.1-0.6-0.1-0.9-0.1c-0.4,0-0.7,0.1-1.1,0.1s-0.8-0.1-1-0.4s-0.2-0.8-0.1-1.2
	c-0.5,0.1-1,0.4-1.2,0.9s-0.3,1-0.3,1.5c-0.5,0.4-0.9,1-1.3,1.6c-0.2,0.4-0.4,0.9-0.4,1.4c-0.3,2.5,0.5,5,2.2,6.8
	c0-0.3,0.2-0.5,0.4-0.7c0.4,0.8,0.1,1.8-0.6,2.3c-0.3,0.2-0.7,0.3-1.1,0.3c-0.2,0-0.4,0-0.5,0c-0.6-0.1-0.9-0.7-1-1.3
	c-0.1-0.4-0.1-0.9-0.1-1.3c0-0.3,0-0.6,0.2-0.9c0.2-0.2,0.6-0.3,0.8,0c0.3-0.4,0.1-1-0.1-1.4s-0.6-0.7-0.9-1l-2-1.7
	c-0.8-0.7-1.7-1.4-2.4-2.2c-0.8-1.2-1.6-2.4-2.3-3.7c-0.3-0.6-0.7-1.1-1-1.7c0-0.1,0-0.2,0-0.3l-0.1,0.1c-0.2-0.4-0.3-0.7-0.5-1.1
	c-0.4-1.1-0.5-2.2-0.2-3.3l0,0c0.2-0.9,0.7-1.8,1.3-2.5c-1.8,0.6-3.1,2.6-3.1,4.5c-0.3-0.6-0.5-1.2-0.5-1.9
	c-0.5,1.3-0.8,2.7-0.7,4.1c-0.4-0.4-0.7-1-0.9-1.5c0,1.5,0.2,2.9,0.4,4.3l-0.9-1.5c0.1,1.3,0.3,2.7,0.6,4c-0.2-0.4-0.5-0.7-0.9-1
	c0.3,1.2,0.7,2.5,1.2,3.7l-1.3-1c0.5,1.2,1.1,2.4,1.8,3.5l-1.2-0.8c-0.1,0.3,0.2,0.7,0.4,0.9l2,2.5l-1.6-0.5c1.6,2.3,4,3.8,6.7,4.4
	c0.1,0.2,0.3,0.4,0.5,0.5c0.5,0.6,1.1,1,1.7,1.4c0.7,0.4,1.5,0.7,2.3,0.8c1.3,0.2,2.6,0.3,3.9,0c-0.8,0.3-1.8,1.1-2.2,1.8
	c-0.5,0.8-0.7,1.7-0.9,2.6c-0.2,0.9-0.3,1.8-1,2.4c-0.6,0.6-1.7,0.7-2.5,0.3s-1.3-1.3-1.4-2.2c-0.1-0.8,0.1-1.6,0.1-2.5
	c0-0.8-0.2-1.7-1-2.2c-0.5-0.3-1.1-0.3-1.6,0.1c-0.2-0.3-0.7-0.3-1-0.3s-0.7,0.3-0.9,0.5c-0.5,0.5-0.8,1.3-0.8,2
	c0,0.1,0,0.3,0.1,0.4c0.1,0.2,0.2,0.4,0.4,0.5c0.3,0.2,0.6,0.4,0.9,0.5C333.2,310.2,333.5,310.2,333.8,310z M346.6,290.7
	c0.2,0.1,0.3,0.1,0.5,0c0.1-0.1,0.3-0.1,0.4-0.2c0.2,0,0.5,0.1,0.5,0.3c0,0,0,0-0.1,0s-0.1-0.1-0.2-0.1c-0.1,0.2-0.5,0.3-0.7,0.2
	l0,0c-0.1,0-0.2-0.1-0.2-0.1C346.7,290.9,346.6,290.9,346.6,290.7C346.6,290.8,346.6,290.7,346.6,290.7L346.6,290.7z"/>
<circle class="st4" cx="212.3" cy="19.4" r="7.9"/>
<circle class="st5" cx="212.3" cy="19.4" r="4.3"/>
<path class="st6" d="M416.4,0v1.8c0,5.3-4.4,9.7-9.7,9.7h-37.6c-5.3,0-9.7-4.4-9.7-9.7V0H-0.3v334.5h425.2V0H416.4z"/>
</svg>
